<?xml version="1.0" encoding="utf-8"?>
<!-- Generator: Adobe Illustrator 26.0.3, SVG Export Plug-In . SVG Version: 6.00 Build 0)  -->
<svg version="1.1" id="Calque_2" xmlns="http://www.w3.org/2000/svg" xmlns:xlink="http://www.w3.org/1999/xlink" x="0px" y="0px"
	 viewBox="0 0 509.6 201.5" style="enable-background:new 0 0 509.6 201.5;" xml:space="preserve">
<style type="text/css">
	.st0{fill:#606060;}
	.st1{fill:#444749;}
	.st2{fill:#005795;}
	.st3{fill:#1191D0;}
	.st4{fill:#FFFFFF;}
	.st5{font-family:'Montserrat-Regular';}
	.st6{font-size:18px;}
	.st7{letter-spacing:1;}
	.st8{font-size:14px;}
	.st9{fill:#6E7072;}
</style>
<path class="st2" d="M278.8,183.5H13.5v-40.9l237.8,0c0,0,0.3,10.4,11.8,26.2C270.2,178.4,278.8,183.5,278.8,183.5z"/>
<g>
	<path class="st3" d="M96.1,15.3V38H39.2v23.5h51.1v21.7H39.2v23.7h58.6v22.5H13.8V15.3H96.1z"/>
	<path class="st3" d="M120.6,15.3h25.5v114.2h-25.5V15.3z"/>
	<path class="st3" d="M174.2,129.4V15.3h25.5v91.5h55.1c0,0-1.6,5.9-2.7,12c-1,6.1-0.7,10.5-0.7,10.5L174.2,129.4z"/>
</g>
<g>
	<text transform="matrix(0.9852 0 0 1 18.9189 162.3193)" class="st4 st5 st6 st7">ÉCOLE D’INGÉNIEURS</text>
</g>
<g>
	<text transform="matrix(0.9852 0 0 1 18.9189 176.3193)" class="st4 st5 st8 st7">DU LITTORAL CÔTE D’OPALE</text>
</g>
<g>
	<g>
		<path class="st2" d="M320.9,163.7c12.5,0,22.8-5,30.7-14.9l16.3,16.8c-13,14.6-28.2,21.9-45.8,21.9c-17.6,0-32.1-5.6-43.4-16.7
			c-11.4-11.1-17.1-25.1-17.1-42.1c0-16.9,5.8-31.1,17.4-42.4c11.6-11.3,25.8-17,42.6-17c18.7,0,34.4,7.1,47,21.4l-15.8,18
			c-8.1-10-18.1-15-30.1-15c-9.6,0-17.8,3.1-24.6,9.4c-6.8,6.3-10.2,14.7-10.2,25.3s3.2,19.1,9.6,25.6
			C304,160.5,311.7,163.7,320.9,163.7z"/>
		<path class="st2" d="M481.6,170.5c-11.5,11.3-25.8,16.9-42.6,16.9c-16.9,0-31.1-5.6-42.6-16.9c-11.5-11.3-17.3-25.3-17.3-42.1
			c0-16.8,5.8-30.8,17.3-42.1c11.5-11.3,25.8-16.9,42.6-16.9c16.9,0,31.1,5.6,42.6,16.9c11.5,11.3,17.3,25.3,17.3,42.1
			C498.9,145.2,493.2,159.2,481.6,170.5z M473,128.5c0-10.2-3.3-18.9-9.8-26.1c-6.5-7.2-14.6-10.8-24.1-10.8
			c-9.5,0-17.6,3.6-24.1,10.8c-6.5,7.2-9.8,15.9-9.8,26.1c0,10.2,3.3,18.8,9.8,26c6.5,7.1,14.6,10.7,24.1,10.7
			c9.5,0,17.6-3.6,24.1-10.7C469.7,147.3,473,138.7,473,128.5z"/>
	</g>
</g>
</svg>
